# xmcd CD database file
#
# Track frame offsets:
#	150
#	17335
#	30875
#	44959
#	69168
#	87299
#	106025
#	122970
#	139627
#	161309
#	177422
#	198910
#	230261
#
# Disc length: 3244 seconds
#
# Revision: 1
# Processed by: cddbd v1.5.2PL0 Copyright (c) Steve Scherf et al.
# Submitted via: CDex 1.51
#
DISCID=9a0caa0d
DTITLE=Jimmie Dale Gilmore - One Endless Night
DYEAR=2000
DGENRE=
TTITLE0=One endless night
TTITLE1=Banks of the Guadalupe
TTITLE2=No lonesome tune
TTITLE3=Goodbye Old Missoula
TTITLE4=Georgia Rose
TTITLE5=Your love is my rest
TTITLE6=Blue shadows
TTITLE7=Defying gravity
TTITLE8=Ripple 
TTITLE9=Ramblin´ man
TTITLE10=Darcy Farrow
TTITLE11=Mack the knife
TTITLE12=Fort Worth
EXTD=YEAR: 2000
EXTT0=
EXTT1=
EXTT2=
EXTT3=
EXTT4=
EXTT5=
EXTT6=
EXTT7=
EXTT8=
EXTT9=
EXTT10=
EXTT11=
EXTT12=
PLAYORDER=
